<svg width="237" height="32" viewBox="0 0 237 32" fill="none" xmlns="http://www.w3.org/2000/svg">
<path d="M22.2714 3.14746C25.6303 3.14746 28.3532 5.84843 28.3532 9.18025C28.3532 12.5003 25.6495 15.1934 22.3071 15.2124H21.712C19.9926 15.2124 18.4472 14.1637 17.8121 12.566L15.384 6.45796C15.2087 6.01688 14.5844 6.01689 14.4091 6.45796L11.9808 12.5664C11.3458 14.1639 9.80071 15.2126 8.08162 15.2129L6.96145 15.213H5.27121C4.11232 15.213 3.17285 14.2736 3.17285 13.1147V7.34418C3.17285 5.02639 5.05179 3.14746 7.36957 3.14746H22.2714Z" fill="#BC9E50"/>
<path d="M22.2714 29.377C25.6303 29.377 28.3532 26.676 28.3532 23.3442C28.3532 20.0241 25.6495 17.331 22.3071 17.312H21.712C19.9926 17.312 18.4472 18.3607 17.8121 19.9585L15.384 26.0665C15.2087 26.5075 14.5844 26.5075 14.4091 26.0665L11.9808 19.958C11.3458 18.3605 9.80071 17.3118 8.08162 17.3116L6.96145 17.3114H5.27121C4.11232 17.3114 3.17285 18.2508 3.17285 19.4097V25.1802C3.17285 27.498 5.05179 29.377 7.36957 29.377H22.2714Z" fill="#BC9E50"/>
<circle cx="14.7136" cy="16" r="2.09836" fill="#F8F4E3"/>
<path d="M231.01 11.6062C232.672 11.6062 234.015 12.135 235.039 13.1926C236.063 14.2334 236.575 15.6938 236.575 17.5739V25.7575H233.049V18.0524C233.049 16.9444 232.772 16.0967 232.218 15.5092C231.664 14.9048 230.909 14.6027 229.952 14.6027C228.978 14.6027 228.206 14.9048 227.635 15.5092C227.082 16.0967 226.805 16.9444 226.805 18.0524V25.7575H223.279V11.8076H226.805V13.5451C227.275 12.9408 227.871 12.4707 228.592 12.135C229.331 11.7825 230.137 11.6062 231.01 11.6062Z" fill="white"/>
<path d="M213.416 25.9842C212.074 25.9842 210.865 25.6904 209.791 25.1029C208.716 24.4986 207.868 23.6508 207.247 22.5597C206.643 21.4685 206.341 20.2095 206.341 18.7826C206.341 17.3557 206.651 16.0967 207.272 15.0056C207.91 13.9144 208.775 13.0751 209.866 12.4875C210.957 11.8832 212.174 11.5811 213.517 11.5811C214.86 11.5811 216.077 11.8832 217.168 12.4875C218.26 13.0751 219.116 13.9144 219.737 15.0056C220.375 16.0967 220.694 17.3557 220.694 18.7826C220.694 20.2095 220.366 21.4685 219.712 22.5597C219.074 23.6508 218.201 24.4986 217.093 25.1029C216.002 25.6904 214.776 25.9842 213.416 25.9842ZM213.416 22.9122C214.054 22.9122 214.65 22.7611 215.204 22.459C215.775 22.14 216.228 21.67 216.564 21.0489C216.9 20.4277 217.068 19.6723 217.068 18.7826C217.068 17.4565 216.715 16.4409 216.01 15.7358C215.322 15.014 214.474 14.6531 213.467 14.6531C212.46 14.6531 211.612 15.014 210.924 15.7358C210.252 16.4409 209.916 17.4565 209.916 18.7826C209.916 20.1088 210.244 21.1328 210.898 21.8546C211.57 22.5597 212.409 22.9122 213.416 22.9122Z" fill="white"/>
<path d="M202.001 10.1457C201.38 10.1457 200.86 9.95264 200.44 9.56654C200.037 9.16365 199.836 8.66844 199.836 8.0809C199.836 7.49336 200.037 7.00654 200.44 6.62044C200.86 6.21756 201.38 6.01611 202.001 6.01611C202.623 6.01611 203.135 6.21756 203.537 6.62044C203.957 7.00654 204.167 7.49336 204.167 8.0809C204.167 8.66844 203.957 9.16365 203.537 9.56654C203.135 9.95264 202.623 10.1457 202.001 10.1457ZM203.739 11.8076V25.7575H200.214V11.8076H203.739Z" fill="white"/>
<path d="M186.736 11.8076V25.7575H183.185V23.9949C182.732 24.5992 182.136 25.0776 181.397 25.4302C180.676 25.7659 179.887 25.9338 179.03 25.9338C177.939 25.9338 176.974 25.7072 176.135 25.2539C175.295 24.7839 174.632 24.104 174.145 23.2143C173.675 22.3078 173.44 21.2335 173.44 19.9912V11.8076H176.966V19.4876C176.966 20.5956 177.243 21.4517 177.797 22.056C178.351 22.6436 179.106 22.9373 180.063 22.9373C181.036 22.9373 181.8 22.6436 182.354 22.056C182.908 21.4517 183.185 20.5956 183.185 19.4876V11.8076H186.736Z" fill="white"/>
<path d="M167.908 14.7034V21.4517C167.908 21.9217 168.017 22.2658 168.235 22.4841C168.47 22.6855 168.856 22.7862 169.393 22.7862H171.03V25.7575H168.814C165.843 25.7575 164.357 24.3138 164.357 21.4265V14.7034H162.695V11.8076H164.357V8.35791H167.908V11.8076H171.03V14.7034H167.908Z" fill="white"/>
<path d="M194.908 14.7034V21.4517C194.908 21.9217 195.017 22.2658 195.235 22.4841C195.47 22.6855 195.856 22.7862 196.393 22.7862H198.03V25.7575H195.814C192.843 25.7575 191.357 24.3138 191.357 21.4265V14.7034H189.695V11.8076H191.357V8.35791H194.908V11.8076H198.03V14.7034H194.908Z" fill="white"/>
<path d="M158.583 10.1457C157.962 10.1457 157.442 9.95264 157.022 9.56654C156.619 9.16365 156.418 8.66844 156.418 8.0809C156.418 7.49336 156.619 7.00654 157.022 6.62044C157.442 6.21756 157.962 6.01611 158.583 6.01611C159.205 6.01611 159.717 6.21756 160.119 6.62044C160.539 7.00654 160.749 7.49336 160.749 8.0809C160.749 8.66844 160.539 9.16365 160.119 9.56654C159.717 9.95264 159.205 10.1457 158.583 10.1457ZM160.321 11.8076V25.7575H156.796V11.8076H160.321Z" fill="white"/>
<path d="M151.137 14.7034V21.4517C151.137 21.9217 151.246 22.2658 151.464 22.4841C151.699 22.6855 152.086 22.7862 152.623 22.7862H154.259V25.7575H152.044C149.072 25.7575 147.587 24.3138 147.587 21.4265V14.7034H145.925V11.8076H147.587V8.35791H151.137V11.8076H154.259V14.7034H151.137Z" fill="white"/>
<path d="M138.65 25.9842C137.509 25.9842 136.485 25.7828 135.578 25.3799C134.672 24.9602 133.95 24.3978 133.413 23.6928C132.892 22.9877 132.607 22.2072 132.557 21.351H136.107C136.174 21.8882 136.434 22.3331 136.888 22.6856C137.358 23.0381 137.937 23.2144 138.625 23.2144C139.297 23.2144 139.817 23.0801 140.186 22.8115C140.572 22.5429 140.765 22.1988 140.765 21.7791C140.765 21.3258 140.53 20.9901 140.06 20.7719C139.607 20.5369 138.877 20.2851 137.87 20.0165C136.829 19.7647 135.973 19.5045 135.301 19.2359C134.647 18.9673 134.076 18.556 133.589 18.002C133.119 17.4481 132.884 16.7011 132.884 15.761C132.884 14.9888 133.102 14.2837 133.539 13.6458C133.992 13.0079 134.63 12.5043 135.452 12.135C136.292 11.7657 137.274 11.5811 138.398 11.5811C140.06 11.5811 141.387 12.0007 142.377 12.8401C143.367 13.6626 143.913 14.779 144.014 16.1891H140.64C140.589 15.6351 140.354 15.1986 139.934 14.8797C139.532 14.5439 138.986 14.3761 138.298 14.3761C137.66 14.3761 137.165 14.4936 136.812 14.7286C136.476 14.9636 136.309 15.291 136.309 15.7106C136.309 16.1807 136.544 16.5416 137.014 16.7934C137.484 17.0284 138.214 17.2718 139.204 17.5236C140.211 17.7754 141.042 18.0356 141.697 18.3042C142.352 18.5728 142.914 18.9925 143.384 19.5632C143.871 20.1172 144.123 20.8558 144.14 21.7791C144.14 22.5849 143.913 23.3067 143.46 23.9446C143.023 24.5825 142.385 25.0861 141.546 25.4554C140.723 25.8079 139.758 25.9842 138.65 25.9842Z" fill="white"/>
<path d="M124.394 11.6062C126.056 11.6062 127.399 12.135 128.423 13.1926C129.447 14.2334 129.959 15.6938 129.959 17.5739V25.7575H126.434V18.0524C126.434 16.9444 126.157 16.0967 125.603 15.5092C125.049 14.9048 124.294 14.6027 123.337 14.6027C122.363 14.6027 121.591 14.9048 121.02 15.5092C120.466 16.0967 120.189 16.9444 120.189 18.0524V25.7575H116.664V11.8076H120.189V13.5451C120.659 12.9408 121.255 12.4707 121.977 12.135C122.716 11.7825 123.522 11.6062 124.394 11.6062Z" fill="white"/>
<path d="M111.444 10.1457C110.823 10.1457 110.302 9.95264 109.883 9.56654C109.48 9.16365 109.278 8.66844 109.278 8.0809C109.278 7.49336 109.48 7.00654 109.883 6.62044C110.302 6.21756 110.823 6.01611 111.444 6.01611C112.065 6.01611 112.577 6.21756 112.98 6.62044C113.399 7.00654 113.609 7.49336 113.609 8.0809C113.609 8.66844 113.399 9.16365 112.98 9.56654C112.577 9.95264 112.065 10.1457 111.444 10.1457ZM113.181 11.8076V25.7575H109.656V11.8076H113.181Z" fill="white"/>
<path d="M99.7934 25.9842C98.4505 25.9842 97.2418 25.6904 96.1675 25.1029C95.0931 24.4986 94.2454 23.6508 93.6243 22.5597C93.0199 21.4685 92.7178 20.2095 92.7178 18.7826C92.7178 17.3557 93.0283 16.0967 93.6494 15.0056C94.2873 13.9144 95.1519 13.0751 96.243 12.4875C97.3342 11.8832 98.5512 11.5811 99.8942 11.5811C101.237 11.5811 102.454 11.8832 103.545 12.4875C104.636 13.0751 105.493 13.9144 106.114 15.0056C106.752 16.0967 107.071 17.3557 107.071 18.7826C107.071 20.2095 106.743 21.4685 106.089 22.5597C105.451 23.6508 104.578 24.4986 103.47 25.1029C102.379 25.6904 101.153 25.9842 99.7934 25.9842ZM99.7934 22.9122C100.431 22.9122 101.027 22.7611 101.581 22.459C102.152 22.14 102.605 21.67 102.941 21.0489C103.277 20.4277 103.445 19.6723 103.445 18.7826C103.445 17.4565 103.092 16.4409 102.387 15.7358C101.699 15.014 100.851 14.6531 99.8438 14.6531C98.8366 14.6531 97.9889 15.014 97.3006 15.7358C96.6291 16.4409 96.2934 17.4565 96.2934 18.7826C96.2934 20.1088 96.6207 21.1328 97.2754 21.8546C97.9469 22.5597 98.7862 22.9122 99.7934 22.9122Z" fill="white"/>
<path d="M77.5449 18.7826C77.5449 17.339 77.8387 16.0799 78.4262 15.0056C79.0138 13.9144 79.8279 13.0751 80.8687 12.4875C81.9095 11.8832 83.1014 11.5811 84.4443 11.5811C86.1734 11.5811 87.6003 12.0175 88.725 12.8904C89.8665 13.7466 90.6303 14.9552 91.0164 16.5164H87.2142C87.0127 15.9121 86.6686 15.442 86.1818 15.1063C85.7117 14.7538 85.1242 14.5775 84.4192 14.5775C83.4119 14.5775 82.6146 14.9468 82.027 15.6854C81.4395 16.4073 81.1457 17.4397 81.1457 18.7826C81.1457 20.1088 81.4395 21.1412 82.027 21.8798C82.6146 22.6016 83.4119 22.9626 84.4192 22.9626C85.846 22.9626 86.7777 22.3247 87.2142 21.0489H91.0164C90.6303 22.5597 89.8665 23.7599 88.725 24.6496C87.5835 25.5394 86.1566 25.9842 84.4443 25.9842C83.1014 25.9842 81.9095 25.6904 80.8687 25.1029C79.8279 24.4986 79.0138 23.6592 78.4262 22.5849C77.8387 21.4937 77.5449 20.2263 77.5449 18.7826Z" fill="white"/>
<path d="M72.7934 14.7034V21.4517C72.7934 21.9217 72.9025 22.2658 73.1207 22.4841C73.3557 22.6855 73.7418 22.7862 74.279 22.7862H75.9157V25.7575H73.6999C70.7286 25.7575 69.243 24.3138 69.243 21.4265V14.7034H67.5811V11.8076H69.243V8.35791H72.7934V11.8076H75.9157V14.7034H72.7934Z" fill="white"/>
<path d="M63.4682 10.1457C62.8471 10.1457 62.3267 9.95264 61.9071 9.56654C61.5042 9.16365 61.3027 8.66844 61.3027 8.0809C61.3027 7.49336 61.5042 7.00654 61.9071 6.62044C62.3267 6.21756 62.8471 6.01611 63.4682 6.01611C64.0894 6.01611 64.6014 6.21756 65.0042 6.62044C65.4239 7.00654 65.6338 7.49336 65.6338 8.0809C65.6338 8.66844 65.4239 9.16365 65.0042 9.56654C64.6014 9.95264 64.0894 10.1457 63.4682 10.1457ZM65.2057 11.8076V25.7575H61.6804V11.8076H65.2057Z" fill="white"/>
<path d="M48.1405 13.8472C48.5937 13.1757 49.2148 12.6301 50.0038 12.2104C50.8096 11.7908 51.7245 11.5809 52.7485 11.5809C53.9403 11.5809 55.0147 11.8747 55.9716 12.4623C56.9452 13.0498 57.709 13.8891 58.263 14.9803C58.8337 16.0546 59.1191 17.3053 59.1191 18.7322C59.1191 20.159 58.8337 21.4264 58.263 22.5344C57.709 23.6255 56.9452 24.4733 55.9716 25.0776C55.0147 25.6819 53.9403 25.9841 52.7485 25.9841C51.7077 25.9841 50.7928 25.7826 50.0038 25.3798C49.2316 24.9601 48.6105 24.4229 48.1405 23.7682V25.7575H44.6152V7.12402H48.1405V13.8472ZM55.5183 18.7322C55.5183 17.8928 55.3421 17.171 54.9895 16.5666C54.6538 15.9455 54.2005 15.4755 53.6298 15.1565C53.0758 14.8376 52.4715 14.6781 51.8168 14.6781C51.1789 14.6781 50.5746 14.846 50.0038 15.1817C49.4499 15.5007 48.9966 15.9707 48.6441 16.5918C48.3083 17.2129 48.1405 17.9432 48.1405 18.7825C48.1405 19.6219 48.3083 20.3521 48.6441 20.9732C48.9966 21.5943 49.4499 22.0727 50.0038 22.4085C50.5746 22.7274 51.1789 22.8869 51.8168 22.8869C52.4715 22.8869 53.0758 22.719 53.6298 22.3833C54.2005 22.0476 54.6538 21.5691 54.9895 20.948C55.3421 20.3269 55.5183 19.5883 55.5183 18.7322Z" fill="white"/>
</svg>
