<svg width="237" height="33" viewBox="0 0 237 33" fill="none" xmlns="http://www.w3.org/2000/svg">
<path d="M22.246 3.72461C25.6049 3.72461 28.3278 6.42558 28.3278 9.7574C28.3278 13.0774 25.6241 15.7705 22.2817 15.7895H21.6866C19.9673 15.7895 18.4218 14.7408 17.7867 13.1431L15.3586 7.03511C15.1833 6.59403 14.559 6.59404 14.3837 7.03511L11.9554 13.1436C11.3204 14.7411 9.77532 15.7897 8.05623 15.79L6.93606 15.7902C4.84368 15.7902 3.14746 14.094 3.14746 12.0016V7.92133C3.14746 5.60354 5.0264 3.72461 7.34418 3.72461H22.246Z" fill="#BC9E50"/>
<path d="M22.246 29.9551C25.6049 29.9551 28.3278 27.2541 28.3278 23.9223C28.3278 20.6023 25.6241 17.9092 22.2817 17.8901H21.6866C19.9673 17.8901 18.4218 18.9389 17.7867 20.5366L15.3586 26.6446C15.1833 27.0857 14.559 27.0857 14.3837 26.6446L11.9554 20.5361C11.3204 18.9386 9.77532 17.89 8.05623 17.8897L6.93606 17.8895C4.84368 17.8895 3.14746 19.5857 3.14746 21.6781V25.7584C3.14746 28.0761 5.0264 29.9551 7.34418 29.9551H22.246Z" fill="#BC9E50"/>
<circle cx="14.6882" cy="16.5769" r="2.09836" fill="#2D2D4D"/>
<path d="M230.984 12.1816C232.646 12.1816 233.989 12.7104 235.013 13.768C236.037 14.8088 236.549 16.2692 236.549 18.1494V26.333H233.024V18.6278C233.024 17.5199 232.747 16.6721 232.193 16.0846C231.639 15.4803 230.884 15.1781 229.927 15.1781C228.953 15.1781 228.181 15.4803 227.61 16.0846C227.056 16.6721 226.779 17.5199 226.779 18.6278V26.333H223.254V12.3831H226.779V14.1205C227.249 13.5162 227.845 13.0462 228.567 12.7104C229.306 12.3579 230.111 12.1816 230.984 12.1816Z" fill="#2D2D4D"/>
<path d="M213.391 26.5594C212.048 26.5594 210.84 26.2656 209.765 25.6781C208.691 25.0738 207.843 24.226 207.222 23.1349C206.618 22.0437 206.315 20.7847 206.315 19.3578C206.315 17.9309 206.626 16.6719 207.247 15.5808C207.885 14.4896 208.75 13.6503 209.841 13.0627C210.932 12.4584 212.149 12.1562 213.492 12.1562C214.835 12.1562 216.052 12.4584 217.143 13.0627C218.234 13.6503 219.09 14.4896 219.711 15.5808C220.349 16.6719 220.668 17.9309 220.668 19.3578C220.668 20.7847 220.341 22.0437 219.686 23.1349C219.048 24.226 218.175 25.0738 217.067 25.6781C215.976 26.2656 214.751 26.5594 213.391 26.5594ZM213.391 23.4874C214.029 23.4874 214.625 23.3363 215.179 23.0342C215.75 22.7152 216.203 22.2452 216.539 21.6241C216.874 21.0029 217.042 20.2475 217.042 19.3578C217.042 18.0317 216.69 17.0161 215.985 16.311C215.296 15.5892 214.449 15.2283 213.441 15.2283C212.434 15.2283 211.587 15.5892 210.898 16.311C210.227 17.0161 209.891 18.0317 209.891 19.3578C209.891 20.684 210.218 21.708 210.873 22.4298C211.545 23.1349 212.384 23.4874 213.391 23.4874Z" fill="#2D2D4D"/>
<path d="M201.976 10.7214C201.355 10.7214 200.835 10.5283 200.415 10.1422C200.012 9.73934 199.811 9.24412 199.811 8.65658C199.811 8.06904 200.012 7.58222 200.415 7.19612C200.835 6.79324 201.355 6.5918 201.976 6.5918C202.597 6.5918 203.109 6.79324 203.512 7.19612C203.932 7.58222 204.142 8.06904 204.142 8.65658C204.142 9.24412 203.932 9.73934 203.512 10.1422C203.109 10.5283 202.597 10.7214 201.976 10.7214ZM203.713 12.3833V26.3332H200.188V12.3833H203.713Z" fill="#2D2D4D"/>
<path d="M186.71 12.3828V26.3327H183.16V24.5701C182.707 25.1744 182.111 25.6528 181.372 26.0054C180.65 26.3411 179.861 26.509 179.005 26.509C177.914 26.509 176.949 26.2824 176.109 25.8291C175.27 25.3591 174.607 24.6792 174.12 23.7895C173.65 22.883 173.415 21.8086 173.415 20.5664V12.3828H176.94V20.0628C176.94 21.1707 177.217 22.0269 177.771 22.6312C178.325 23.2187 179.081 23.5125 180.037 23.5125C181.011 23.5125 181.775 23.2187 182.329 22.6312C182.883 22.0269 183.16 21.1707 183.16 20.0628V12.3828H186.71Z" fill="#2D2D4D"/>
<path d="M167.882 15.279V22.0274C167.882 22.4974 167.991 22.8415 168.21 23.0598C168.445 23.2612 168.831 23.3619 169.368 23.3619H171.005V26.3332H168.789C165.817 26.3332 164.332 24.8895 164.332 22.0022V15.279H162.67V12.3833H164.332V8.93359H167.882V12.3833H171.005V15.279H167.882Z" fill="#2D2D4D"/>
<path d="M194.882 15.279V22.0274C194.882 22.4974 194.991 22.8415 195.21 23.0598C195.445 23.2612 195.831 23.3619 196.368 23.3619H198.005V26.3332H195.789C192.817 26.3332 191.332 24.8895 191.332 22.0022V15.279H189.67V12.3833H191.332V8.93359H194.882V12.3833H198.005V15.279H194.882Z" fill="#2D2D4D"/>
<path d="M158.558 10.7214C157.937 10.7214 157.417 10.5283 156.997 10.1422C156.594 9.73934 156.393 9.24412 156.393 8.65658C156.393 8.06904 156.594 7.58222 156.997 7.19612C157.417 6.79324 157.937 6.5918 158.558 6.5918C159.179 6.5918 159.691 6.79324 160.094 7.19612C160.514 7.58222 160.724 8.06904 160.724 8.65658C160.724 9.24412 160.514 9.73934 160.094 10.1422C159.691 10.5283 159.179 10.7214 158.558 10.7214ZM160.296 12.3833V26.3332H156.77V12.3833H160.296Z" fill="#2D2D4D"/>
<path d="M151.112 15.279V22.0274C151.112 22.4974 151.221 22.8415 151.439 23.0598C151.674 23.2612 152.06 23.3619 152.597 23.3619H154.234V26.3332H152.018C149.047 26.3332 147.561 24.8895 147.561 22.0022V15.279H145.899V12.3833H147.561V8.93359H151.112V12.3833H154.234V15.279H151.112Z" fill="#2D2D4D"/>
<path d="M138.625 26.5594C137.483 26.5594 136.459 26.358 135.553 25.9551C134.646 25.5354 133.925 24.973 133.387 24.268C132.867 23.5629 132.582 22.7823 132.531 21.9262H136.082C136.149 22.4634 136.409 22.9083 136.862 23.2608C137.332 23.6133 137.911 23.7896 138.6 23.7896C139.271 23.7896 139.792 23.6553 140.161 23.3867C140.547 23.1181 140.74 22.774 140.74 22.3543C140.74 21.901 140.505 21.5653 140.035 21.3471C139.582 21.1121 138.852 20.8603 137.844 20.5917C136.804 20.3399 135.947 20.0797 135.276 19.8111C134.621 19.5425 134.05 19.1312 133.564 18.5772C133.094 18.0233 132.859 17.2763 132.859 16.3362C132.859 15.564 133.077 14.8589 133.513 14.221C133.967 13.5831 134.604 13.0795 135.427 12.7102C136.266 12.3409 137.248 12.1562 138.373 12.1562C140.035 12.1562 141.361 12.5759 142.352 13.4153C143.342 14.2378 143.888 15.3542 143.988 16.7643H140.614C140.564 16.2103 140.329 15.7738 139.909 15.4549C139.506 15.1191 138.961 14.9513 138.272 14.9513C137.634 14.9513 137.139 15.0688 136.787 15.3038C136.451 15.5388 136.283 15.8662 136.283 16.2858C136.283 16.7559 136.518 17.1168 136.988 17.3686C137.458 17.6036 138.188 17.847 139.179 18.0988C140.186 18.3506 141.017 18.6108 141.672 18.8794C142.326 19.148 142.889 19.5677 143.359 20.1384C143.846 20.6924 144.097 21.431 144.114 22.3543C144.114 23.1601 143.888 23.8819 143.434 24.5198C142.998 25.1577 142.36 25.6613 141.521 26.0306C140.698 26.3831 139.733 26.5594 138.625 26.5594Z" fill="#2D2D4D"/>
<path d="M124.369 12.1816C126.031 12.1816 127.374 12.7104 128.398 13.768C129.422 14.8088 129.934 16.2692 129.934 18.1494V26.333H126.409V18.6278C126.409 17.5199 126.132 16.6721 125.578 16.0846C125.024 15.4803 124.268 15.1781 123.311 15.1781C122.338 15.1781 121.566 15.4803 120.995 16.0846C120.441 16.6721 120.164 17.5199 120.164 18.6278V26.333H116.639V12.3831H120.164V14.1205C120.634 13.5162 121.23 13.0462 121.952 12.7104C122.69 12.3579 123.496 12.1816 124.369 12.1816Z" fill="#2D2D4D"/>
<path d="M111.418 10.7214C110.797 10.7214 110.277 10.5283 109.857 10.1422C109.454 9.73934 109.253 9.24412 109.253 8.65658C109.253 8.06904 109.454 7.58222 109.857 7.19612C110.277 6.79324 110.797 6.5918 111.418 6.5918C112.04 6.5918 112.552 6.79324 112.954 7.19612C113.374 7.58222 113.584 8.06904 113.584 8.65658C113.584 9.24412 113.374 9.73934 112.954 10.1422C112.552 10.5283 112.04 10.7214 111.418 10.7214ZM113.156 12.3833V26.3332H109.631V12.3833H113.156Z" fill="#2D2D4D"/>
<path d="M99.7681 26.5594C98.4251 26.5594 97.2164 26.2656 96.1421 25.6781C95.0677 25.0738 94.22 24.226 93.5989 23.1349C92.9945 22.0437 92.6924 20.7847 92.6924 19.3578C92.6924 17.9309 93.0029 16.6719 93.6241 15.5808C94.262 14.4896 95.1265 13.6503 96.2176 13.0627C97.3088 12.4584 98.5258 12.1562 99.8688 12.1562C101.212 12.1562 102.429 12.4584 103.52 13.0627C104.611 13.6503 105.467 14.4896 106.088 15.5808C106.726 16.6719 107.045 17.9309 107.045 19.3578C107.045 20.7847 106.718 22.0437 106.063 23.1349C105.425 24.226 104.552 25.0738 103.444 25.6781C102.353 26.2656 101.128 26.5594 99.7681 26.5594ZM99.7681 23.4874C100.406 23.4874 101.002 23.3363 101.556 23.0342C102.127 22.7152 102.58 22.2452 102.916 21.6241C103.251 21.0029 103.419 20.2475 103.419 19.3578C103.419 18.0317 103.067 17.0161 102.362 16.311C101.673 15.5892 100.826 15.2283 99.8184 15.2283C98.8112 15.2283 97.9635 15.5892 97.2752 16.311C96.6037 17.0161 96.268 18.0317 96.268 19.3578C96.268 20.684 96.5953 21.708 97.25 22.4298C97.9215 23.1349 98.7608 23.4874 99.7681 23.4874Z" fill="#2D2D4D"/>
<path d="M77.5195 19.3578C77.5195 17.9142 77.8133 16.6551 78.4008 15.5808C78.9884 14.4896 79.8025 13.6503 80.8433 13.0627C81.8841 12.4584 83.076 12.1562 84.4189 12.1562C86.148 12.1562 87.5749 12.5927 88.6996 13.4656C89.8411 14.3218 90.6049 15.5304 90.991 17.0916H87.1888C86.9873 16.4873 86.6432 16.0172 86.1564 15.6815C85.6864 15.329 85.0988 15.1527 84.3938 15.1527C83.3865 15.1527 82.5892 15.522 82.0016 16.2606C81.4141 16.9825 81.1203 18.0149 81.1203 19.3578C81.1203 20.684 81.4141 21.7164 82.0016 22.455C82.5892 23.1768 83.3865 23.5378 84.3938 23.5378C85.8206 23.5378 86.7523 22.8999 87.1888 21.6241H90.991C90.6049 23.1349 89.8411 24.3351 88.6996 25.2248C87.5581 26.1145 86.1312 26.5594 84.4189 26.5594C83.076 26.5594 81.8841 26.2656 80.8433 25.6781C79.8025 25.0738 78.9884 24.2344 78.4008 23.1601C77.8133 22.0689 77.5195 20.8015 77.5195 19.3578Z" fill="#2D2D4D"/>
<path d="M72.768 15.279V22.0274C72.768 22.4974 72.8771 22.8415 73.0953 23.0598C73.3304 23.2612 73.7165 23.3619 74.2536 23.3619H75.8904V26.3332H73.6745C70.7032 26.3332 69.2176 24.8895 69.2176 22.0022V15.279H67.5557V12.3833H69.2176V8.93359H72.768V12.3833H75.8904V15.279H72.768Z" fill="#2D2D4D"/>
<path d="M63.4429 10.7214C62.8217 10.7214 62.3013 10.5283 61.8817 10.1422C61.4788 9.73934 61.2773 9.24412 61.2773 8.65658C61.2773 8.06904 61.4788 7.58222 61.8817 7.19612C62.3013 6.79324 62.8217 6.5918 63.4429 6.5918C64.064 6.5918 64.576 6.79324 64.9789 7.19612C65.3985 7.58222 65.6084 8.06904 65.6084 8.65658C65.6084 9.24412 65.3985 9.73934 64.9789 10.1422C64.576 10.5283 64.064 10.7214 63.4429 10.7214ZM65.1803 12.3833V26.3332H61.655V12.3833H65.1803Z" fill="#2D2D4D"/>
<path d="M48.1151 14.4224C48.5683 13.7509 49.1895 13.2053 49.9784 12.7856C50.7842 12.366 51.6991 12.1561 52.7231 12.1561C53.915 12.1561 54.9893 12.4499 55.9462 13.0374C56.9198 13.625 57.6836 14.4643 58.2376 15.5555C58.8083 16.6298 59.0937 17.8805 59.0937 19.3074C59.0937 20.7342 58.8083 22.0016 58.2376 23.1096C57.6836 24.2007 56.9198 25.0485 55.9462 25.6528C54.9893 26.2571 53.915 26.5593 52.7231 26.5593C51.6823 26.5593 50.7674 26.3578 49.9784 25.955C49.2062 25.5353 48.5851 24.9981 48.1151 24.3434V26.3327H44.5898V7.69922H48.1151V14.4224ZM55.4929 19.3074C55.4929 18.468 55.3167 17.7462 54.9641 17.1418C54.6284 16.5207 54.1752 16.0507 53.6044 15.7317C53.0504 15.4128 52.4461 15.2533 51.7914 15.2533C51.1535 15.2533 50.5492 15.4212 49.9784 15.7569C49.4245 16.0759 48.9712 16.5459 48.6187 17.167C48.283 17.7881 48.1151 18.5184 48.1151 19.3577C48.1151 20.1971 48.283 20.9273 48.6187 21.5484C48.9712 22.1695 49.4245 22.6479 49.9784 22.9837C50.5492 23.3026 51.1535 23.4621 51.7914 23.4621C52.4461 23.4621 53.0504 23.2942 53.6044 22.9585C54.1752 22.6228 54.6284 22.1443 54.9641 21.5232C55.3167 20.9021 55.4929 20.1635 55.4929 19.3074Z" fill="#2D2D4D"/>
</svg>
